STARTFONT 2.3
FONT -FontForge-Courgette-Book-R-Normal--9-90-72-72-P-47-ISO10646-1
SIZE 9 72 72  2
FONTBOUNDINGBOX 12 13 -2 -3
COMMENT "Generated by fontforge, http://fontforge.sourceforge.net"
COMMENT "Copyright (c) 2012, Sorkin Type Co (www.sorkintype.com) with Reserved Font Name "Courgette"."
STARTPROPERTIES 41
FOUNDRY "FontForge"
FAMILY_NAME "Courgette"
WEIGHT_NAME "Book"
SLANT "R"
SETWIDTH_NAME "Normal"
ADD_STYLE_NAME ""
PIXEL_SIZE 9
POINT_SIZE 90
RESOLUTION_X 72
RESOLUTION_Y 72
SPACING "P"
AVERAGE_WIDTH 47
CHARSET_REGISTRY "ISO10646"
CHARSET_ENCODING "1"
FONTNAME_REGISTRY ""
CHARSET_COLLECTIONS "ISO8859-2 ISO8859-9 ISO8859-4 ISO10646-1"
BITS_PER_PIXEL 2
FONT_NAME "Courgette-Regular"
FACE_NAME "Courgette Regular"
COPYRIGHT "Copyright (c) 2012, Sorkin Type Co (www.sorkintype.com) with Reserved Font Name "Courgette"."
FONT_VERSION "1.002"
FONT_ASCENT 7
FONT_DESCENT 2
UNDERLINE_POSITION -1
UNDERLINE_THICKNESS 1
X_HEIGHT 4
CAP_HEIGHT 7
DEFAULT_CHAR 1
RAW_ASCENT 799
RAW_DESCENT 200
NORM_SPACE 3
RELATIVE_WEIGHT 40
RELATIVE_SETWIDTH 50
SUPERSCRIPT_X 0
SUPERSCRIPT_Y 4
SUPERSCRIPT_SIZE 5
SUBSCRIPT_X 0
SUBSCRIPT_Y 1
SUBSCRIPT_SIZE 5
AVG_LOWERCASE_WIDTH 45
AVG_UPPERCASE_WIDTH 53
ENDPROPERTIES
CHARS 407
STARTCHAR .null.dup1
ENCODING 0
SWIDTH 0 0
DWIDTH 0 0
BBX 1 1 0 0
BITMAP
00
ENDCHAR
STARTCHAR uni0001
ENCODING 1
SWIDTH 0 0
DWIDTH 0 0
BBX 1 1 0 0
BITMAP
00
ENDCHAR
STARTCHAR uni0002
ENCODING 2
SWIDTH 0 0
DWIDTH 0 0
BBX 1 1 0 0
BITMAP
00
ENDCHAR
STARTCHAR uni0003
ENCODING 3
SWIDTH 0 0
DWIDTH 0 0
BBX 1 1 0 0
BITMAP
00
ENDCHAR
STARTCHAR uni0004
ENCODING 4
SWIDTH 0 0
DWIDTH 0 0
BBX 1 1 0 0
BITMAP
00
ENDCHAR
STARTCHAR uni0005
ENCODING 5
SWIDTH 0 0
DWIDTH 0 0
BBX 1 1 0 0
BITMAP
00
ENDCHAR
STARTCHAR uni0006
ENCODING 6
SWIDTH 0 0
DWIDTH 0 0
BBX 1 1 0 0
BITMAP
00
ENDCHAR
STARTCHAR uni0007
ENCODING 7
SWIDTH 0 0
DWIDTH 0 0
BBX 1 1 0 0
BITMAP
00
ENDCHAR
STARTCHAR uni0008
ENCODING 8
SWIDTH 0 0
DWIDTH 0 0
BBX 1 1 0 0
BITMAP
00
ENDCHAR
STARTCHAR uni0009
ENCODING 9
SWIDTH 0 0
DWIDTH 0 0
BBX 1 1 0 0
BITMAP
00
ENDCHAR
STARTCHAR nonmarkingreturn
ENCODING 13
SWIDTH 0 0
DWIDTH 0 0
BBX 1 1 0 0
BITMAP
00
ENDCHAR
STARTCHAR uni0015
ENCODING 21
SWIDTH 0 0
DWIDTH 0 0
BBX 1 1 0 0
BITMAP
00
ENDCHAR
STARTCHAR uni0016
ENCODING 22
SWIDTH 0 0
DWIDTH 0 0
BBX 1 1 0 0
BITMAP
00
ENDCHAR
STARTCHAR uni0017
ENCODING 23
SWIDTH 0 0
DWIDTH 0 0
BBX 1 1 0 0
BITMAP
00
ENDCHAR
STARTCHAR uni0018
ENCODING 24
SWIDTH 0 0
DWIDTH 0 0
BBX 1 1 0 0
BITMAP
00
ENDCHAR
STARTCHAR uni0019
ENCODING 25
SWIDTH 0 0
DWIDTH 0 0
BBX 1 1 0 0
BITMAP
00
ENDCHAR
STARTCHAR space
ENCODING 32
SWIDTH 307 0
DWIDTH 3 0
BBX 1 1 0 0
BITMAP
00
ENDCHAR
STARTCHAR exclam
ENCODING 33
SWIDTH 417 0
DWIDTH 4 0
BBX 4 8 0 0
BITMAP
07
09
0C
18
24
10
70
10
ENDCHAR
STARTCHAR quotedbl
ENCODING 34
SWIDTH 437 0
DWIDTH 4 0
BBX 4 3 1 6
BITMAP
15
99
88
ENDCHAR
STARTCHAR numbersign
ENCODING 35
SWIDTH 725 0
DWIDTH 7 0
BBX 7 8 0 0
BITMAP
0220
0220
0650
2FF4
0880
7FE0
1600
1200
ENDCHAR
STARTCHAR dollar
ENCODING 36
SWIDTH 545 0
DWIDTH 5 0
BBX 5 11 0 -2
BITMAP
0080
0680
1880
24C0
2980
1C00
0900
5600
7800
2000
1000
ENDCHAR
STARTCHAR percent
ENCODING 37
SWIDTH 876 0
DWIDTH 8 0
BBX 8 8 0 0
BITMAP
1908
2624
6960
2980
0228
0999
188C
2064
ENDCHAR
STARTCHAR ampersand
ENCODING 38
SWIDTH 563 0
DWIDTH 5 0
BBX 5 8 0 0
BITMAP
0A80
2880
3280
2500
3400
A780
9200
6900
ENDCHAR
STARTCHAR quotesingle
ENCODING 39
SWIDTH 231 0
DWIDTH 2 0
BBX 2 3 1 6
BITMAP
10
90
80
ENDCHAR
STARTCHAR parenleft
ENCODING 40
SWIDTH 478 0
DWIDTH 4 0
BBX 4 12 1 -2
BITMAP
01
06
08
24
60
90
C0
C0
C0
C0
90
20
ENDCHAR
STARTCHAR parenright
ENCODING 41
SWIDTH 478 0
DWIDTH 4 0
BBX 5 12 -1 -2
BITMAP
0400
0200
0240
0140
0180
0240
0240
0300
0600
0800
2400
5000
ENDCHAR
STARTCHAR asterisk
ENCODING 42
SWIDTH 518 0
DWIDTH 5 0
BBX 4 4 1 4
BITMAP
18
69
74
48
ENDCHAR
STARTCHAR plus
ENCODING 43
SWIDTH 617 0
DWIDTH 6 0
BBX 5 5 0 1
BITMAP
0400
0400
6E80
0400
0400
ENDCHAR
STARTCHAR comma
ENCODING 44
SWIDTH 312 0
DWIDTH 3 0
BBX 2 3 0 -1
BITMAP
60
60
80
ENDCHAR
STARTCHAR hyphen
ENCODING 45
SWIDTH 452 0
DWIDTH 4 0
BBX 3 1 1 3
BITMAP
F4
ENDCHAR
STARTCHAR period
ENCODING 46
SWIDTH 270 0
DWIDTH 2 0
BBX 2 2 0 -1
BITMAP
A0
40
ENDCHAR
STARTCHAR slash
ENCODING 47
SWIDTH 405 0
DWIDTH 4 0
BBX 6 11 -1 -2
BITMAP
0010
0020
0090
0080
0240
0200
0900
0800
2400
2000
9000
ENDCHAR
STARTCHAR zero
ENCODING 48
SWIDTH 621 0
DWIDTH 6 0
BBX 6 8 0 0
BITMAP
0290
0C60
2860
3090
60C0
6180
5240
2900
ENDCHAR
STARTCHAR one
ENCODING 49
SWIDTH 405 0
DWIDTH 4 0
BBX 4 8 0 0
BITMAP
0A
2E
09
0C
18
24
20
50
ENDCHAR
STARTCHAR two
ENCODING 50
SWIDTH 524 0
DWIDTH 5 0
BBX 5 8 0 0
BITMAP
0A40
2480
2580
0340
0900
2800
6000
AE00
ENDCHAR
STARTCHAR three
ENCODING 51
SWIDTH 537 0
DWIDTH 5 0
BBX 5 8 0 0
BITMAP
0A40
24C0
2580
0640
0E00
0300
9600
6800
ENDCHAR
STARTCHAR four
ENCODING 52
SWIDTH 529 0
DWIDTH 5 0
BBX 5 8 0 0
BITMAP
0800
1800
2940
3240
6240
6B40
0900
0800
ENDCHAR
STARTCHAR five
ENCODING 53
SWIDTH 540 0
DWIDTH 5 0
BBX 6 8 0 0
BITMAP
0A90
0940
1400
2B00
1240
0240
9700
6800
ENDCHAR
STARTCHAR six
ENCODING 54
SWIDTH 554 0
DWIDTH 5 0
BBX 5 8 0 0
BITMAP
0680
0880
2440
3A00
7140
6240
6200
2900
ENDCHAR
STARTCHAR seven
ENCODING 55
SWIDTH 473 0
DWIDTH 4 0
BBX 4 7 1 1
BITMAP
BA
09
14
20
90
C0
40
ENDCHAR
STARTCHAR eight
ENCODING 56
SWIDTH 524 0
DWIDTH 5 0
BBX 5 8 0 0
BITMAP
0B40
19C0
2480
1A40
1D00
6600
9200
6800
ENDCHAR
STARTCHAR nine
ENCODING 57
SWIDTH 554 0
DWIDTH 5 0
BBX 5 8 0 0
BITMAP
0A80
24C0
30C0
3280
1A80
0200
5600
6800
ENDCHAR
STARTCHAR colon
ENCODING 58
SWIDTH 312 0
DWIDTH 3 0
BBX 3 4 0 0
BITMAP
34
10
00
A0
ENDCHAR
STARTCHAR semicolon
ENCODING 59
SWIDTH 312 0
DWIDTH 3 0
BBX 3 6 0 -1
BITMAP
34
10
00
60
60
80
ENDCHAR
STARTCHAR less
ENCODING 60
SWIDTH 637 0
DWIDTH 6 0
BBX 5 5 0 0
BITMAP
0180
1900
7400
0A00
0180
ENDCHAR
STARTCHAR equal
ENCODING 61
SWIDTH 617 0
DWIDTH 6 0
BBX 4 3 1 2
BITMAP
AA
00
AA
ENDCHAR
STARTCHAR greater
ENCODING 62
SWIDTH 606 0
DWIDTH 5 0
BBX 5 5 0 0
BITMAP
2400
0640
0180
0900
6000
ENDCHAR
STARTCHAR question
ENCODING 63
SWIDTH 516 0
DWIDTH 5 0
BBX 5 8 0 0
BITMAP
0A40
1880
0580
0700
1C00
1400
1000
7000
ENDCHAR
STARTCHAR at
ENCODING 64
SWIDTH 905 0
DWIDTH 8 0
BBX 8 8 0 -1
BITMAP
02A8
1906
21A6
6632
9995
5664
2000
1A80
ENDCHAR
STARTCHAR A
ENCODING 65
SWIDTH 615 0
DWIDTH 6 0
BBX 7 8 -1 0
BITMAP
0028
0098
0264
0230
0BF4
0890
2490
60A0
ENDCHAR
STARTCHAR B
ENCODING 66
SWIDTH 551 0
DWIDTH 5 0
BBX 6 8 0 0
BITMAP
2A80
2490
2890
3580
7B00
5240
9240
6900
ENDCHAR
STARTCHAR C
ENCODING 67
SWIDTH 533 0
DWIDTH 5 0
BBX 6 8 0 0
BITMAP
0680
1C50
24D0
3140
6000
A000
6100
2A00
ENDCHAR
STARTCHAR D
ENCODING 68
SWIDTH 630 0
DWIDTH 6 0
BBX 6 8 0 0
BITMAP
2A80
1460
1C20
2460
3090
61C0
9340
6900
ENDCHAR
STARTCHAR E
ENCODING 69
SWIDTH 509 0
DWIDTH 5 0
BBX 6 8 0 0
BITMAP
0A80
1890
3580
3000
2D00
7000
9200
6900
ENDCHAR
STARTCHAR F
ENCODING 70
SWIDTH 518 0
DWIDTH 5 0
BBX 6 8 0 0
BITMAP
3910
6790
4900
0C00
2F40
2800
3000
5000
ENDCHAR
STARTCHAR G
ENCODING 71
SWIDTH 598 0
DWIDTH 5 0
BBX 6 8 0 0
BITMAP
0680
0C50
2490
31C0
6000
92D0
6240
2900
ENDCHAR
STARTCHAR H
ENCODING 72
SWIDTH 668 0
DWIDTH 6 0
BBX 7 8 0 0
BITMAP
2824
0C24
1830
2860
3480
20C0
9180
81D0
ENDCHAR
STARTCHAR I
ENCODING 73
SWIDTH 327 0
DWIDTH 3 0
BBX 3 8 0 0
BITMAP
2C
0C
0C
18
24
30
60
80
ENDCHAR
STARTCHAR J
ENCODING 74
SWIDTH 393 0
DWIDTH 4 0
BBX 6 11 -2 -3
BITMAP
02A0
0660
0060
0090
00C0
0180
0240
0300
0900
1800
6000
ENDCHAR
STARTCHAR K
ENCODING 75
SWIDTH 616 0
DWIDTH 6 0
BBX 7 8 -1 0
BITMAP
1E18
0618
0624
0990
0E40
1A80
24D0
6074
ENDCHAR
STARTCHAR L
ENCODING 76
SWIDTH 517 0
DWIDTH 5 0
BBX 5 8 0 0
BITMAP
0680
0C80
19C0
2740
3000
6000
9500
EA00
ENDCHAR
STARTCHAR M
ENCODING 77
SWIDTH 931 0
DWIDTH 8 0
BBX 10 8 -1 0
BITMAP
007090
01A280
0265C0
059980
08D640
18E300
20E300
90C280
ENDCHAR
STARTCHAR N
ENCODING 78
SWIDTH 708 0
DWIDTH 6 0
BBX 7 8 0 0
BITMAP
0618
0A0C
2618
2624
6320
9350
82C0
8180
ENDCHAR
STARTCHAR O
ENCODING 79
SWIDTH 655 0
DWIDTH 6 0
BBX 6 8 0 0
BITMAP
0290
0D30
2830
3030
6060
60D0
6280
2A00
ENDCHAR
STARTCHAR P
ENCODING 80
SWIDTH 553 0
DWIDTH 5 0
BBX 6 8 0 0
BITMAP
1A80
2450
0C90
29C0
3A00
6000
9000
8000
ENDCHAR
STARTCHAR Q
ENCODING 81
SWIDTH 655 0
DWIDTH 6 0
BBX 7 10 0 -2
BITMAP
0690
0C20
2430
3060
6090
61C0
2640
1E00
0280
00A4
ENDCHAR
STARTCHAR R
ENCODING 82
SWIDTH 623 0
DWIDTH 6 0
BBX 6 8 0 0
BITMAP
1A80
1860
1C60
29C0
2E40
3A00
A300
81C0
ENDCHAR
STARTCHAR S
ENCODING 83
SWIDTH 474 0
DWIDTH 4 0
BBX 5 8 0 0
BITMAP
0A40
24C0
3180
3640
2800
0C00
8900
6800
ENDCHAR
STARTCHAR T
ENCODING 84
SWIDTH 471 0
DWIDTH 4 0
BBX 6 8 0 0
BITMAP
3910
6390
1600
0900
0C00
1800
2400
6000
ENDCHAR
STARTCHAR U
ENCODING 85
SWIDTH 624 0
DWIDTH 6 0
BBX 6 8 0 0
BITMAP
1C20
0C70
18A0
30D0
62C0
9280
9980
A5D0
ENDCHAR
STARTCHAR V
ENCODING 86
SWIDTH 587 0
DWIDTH 5 0
BBX 7 8 0 0
BITMAP
2C24
0924
0C30
28A0
3180
2200
6800
3400
ENDCHAR
STARTCHAR W
ENCODING 87
SWIDTH 941 0
DWIDTH 8 0
BBX 9 8 0 0
BITMAP
2C0180
0911C0
1C70C0
25D180
32C240
69C200
688900
30A400
ENDCHAR
STARTCHAR X
ENCODING 88
SWIDTH 552 0
DWIDTH 5 0
BBX 8 8 -1 0
BITMAP
0209
0324
0390
0380
0340
0B40
1980
60A0
ENDCHAR
STARTCHAR Y
ENCODING 89
SWIDTH 580 0
DWIDTH 5 0
BBX 6 11 0 -3
BITMAP
1C20
1C70
28A0
30D0
62C0
9280
9A40
A600
0900
1800
6000
ENDCHAR
STARTCHAR Z
ENCODING 90
SWIDTH 501 0
DWIDTH 5 0
BBX 6 8 0 0
BITMAP
21D0
2EC0
0240
0600
1C00
3400
9000
EF00
ENDCHAR
STARTCHAR bracketleft
ENCODING 91
SWIDTH 396 0
DWIDTH 4 0
BBX 5 11 0 -2
BITMAP
0240
0600
0900
0C00
1800
2400
3000
2000
5000
9000
9000
ENDCHAR
STARTCHAR backslash
ENCODING 92
SWIDTH 464 0
DWIDTH 4 0
BBX 4 11 0 -2
BITMAP
40
50
60
20
20
14
14
08
08
08
05
ENDCHAR
STARTCHAR bracketright
ENCODING 93
SWIDTH 394 0
DWIDTH 4 0
BBX 5 11 -1 -2
BITMAP
0180
00C0
0180
0240
0300
0600
0900
0800
0800
1400
6000
ENDCHAR
STARTCHAR asciicircum
ENCODING 94
SWIDTH 540 0
DWIDTH 5 0
BBX 4 4 1 4
BITMAP
24
38
99
82
ENDCHAR
STARTCHAR underscore
ENCODING 95
SWIDTH 530 0
DWIDTH 5 0
BBX 7 1 -2 -2
BITMAP
6AA4
ENDCHAR
STARTCHAR grave
ENCODING 96
SWIDTH 219 0
DWIDTH 2 0
BBX 2 3 0 5
BITMAP
90
50
10
ENDCHAR
STARTCHAR a
ENCODING 97
SWIDTH 541 0
DWIDTH 5 0
BBX 5 5 0 0
BITMAP
1A80
3240
9300
9A00
6640
ENDCHAR
STARTCHAR b
ENCODING 98
SWIDTH 525 0
DWIDTH 5 0
BBX 5 8 0 0
BITMAP
0800
1800
2400
3B00
7240
6240
9600
6800
ENDCHAR
STARTCHAR c
ENCODING 99
SWIDTH 465 0
DWIDTH 4 0
BBX 4 5 0 0
BITMAP
1A
33
91
90
68
ENDCHAR
STARTCHAR d
ENCODING 100
SWIDTH 557 0
DWIDTH 5 0
BBX 6 8 0 0
BITMAP
0020
0090
00C0
1A80
2240
6340
9700
6680
ENDCHAR
STARTCHAR e
ENCODING 101
SWIDTH 471 0
DWIDTH 4 0
BBX 4 5 0 0
BITMAP
1A
33
69
90
69
ENDCHAR
STARTCHAR f
ENCODING 102
SWIDTH 393 0
DWIDTH 4 0
BBX 5 10 0 -1
BITMAP
0240
0980
0940
1800
6E00
3000
2000
6000
9000
8000
ENDCHAR
STARTCHAR g
ENCODING 103
SWIDTH 526 0
DWIDTH 5 0
BBX 5 7 0 -2
BITMAP
1A40
3240
A340
9700
6A00
0800
2400
ENDCHAR
STARTCHAR h
ENCODING 104
SWIDTH 555 0
DWIDTH 5 0
BBX 5 8 0 0
BITMAP
0800
0C00
1800
2740
2A80
7300
9600
8340
ENDCHAR
STARTCHAR i
ENCODING 105
SWIDTH 286 0
DWIDTH 3 0
BBX 3 8 0 0
BITMAP
18
00
00
34
30
60
90
A0
ENDCHAR
STARTCHAR j
ENCODING 106
SWIDTH 281 0
DWIDTH 3 0
BBX 5 11 -2 -3
BITMAP
0280
0000
0000
0300
0300
0300
0600
0900
0800
2400
6000
ENDCHAR
STARTCHAR k
ENCODING 107
SWIDTH 497 0
DWIDTH 4 0
BBX 5 8 0 0
BITMAP
0800
0C00
1800
2640
2640
7800
AC00
8A00
ENDCHAR
STARTCHAR l
ENCODING 108
SWIDTH 279 0
DWIDTH 3 0
BBX 3 8 0 0
BITMAP
08
18
14
20
20
60
90
A0
ENDCHAR
STARTCHAR m
ENCODING 109
SWIDTH 814 0
DWIDTH 7 0
BBX 7 5 0 0
BITMAP
3768
399C
7264
9330
8528
ENDCHAR
STARTCHAR n
ENCODING 110
SWIDTH 561 0
DWIDTH 5 0
BBX 5 5 0 0
BITMAP
3780
3980
7240
9200
8340
ENDCHAR
STARTCHAR o
ENCODING 111
SWIDTH 514 0
DWIDTH 5 0
BBX 5 5 0 0
BITMAP
1A00
3240
A300
9600
6800
ENDCHAR
STARTCHAR p
ENCODING 112
SWIDTH 550 0
DWIDTH 5 0
BBX 6 8 -1 -3
BITMAP
0D90
0D60
1890
14C0
2A40
2000
6000
9000
ENDCHAR
STARTCHAR q
ENCODING 113
SWIDTH 533 0
DWIDTH 5 0
BBX 5 8 0 -3
BITMAP
1A40
3280
6340
9700
6A00
0900
0800
0800
ENDCHAR
STARTCHAR r
ENCODING 114
SWIDTH 407 0
DWIDTH 4 0
BBX 4 5 0 0
BITMAP
37
39
70
90
80
ENDCHAR
STARTCHAR s
ENCODING 115
SWIDTH 423 0
DWIDTH 4 0
BBX 4 5 0 0
BITMAP
2A
31
24
58
A4
ENDCHAR
STARTCHAR t
ENCODING 116
SWIDTH 358 0
DWIDTH 3 0
BBX 4 7 0 0
BITMAP
04
0C
39
30
20
60
38
ENDCHAR
STARTCHAR u
ENCODING 117
SWIDTH 553 0
DWIDTH 5 0
BBX 5 5 0 0
BITMAP
2480
3240
6700
9A00
A340
ENDCHAR
STARTCHAR v
ENCODING 118
SWIDTH 510 0
DWIDTH 5 0
BBX 5 5 0 0
BITMAP
2640
3240
6200
9600
A400
ENDCHAR
STARTCHAR w
ENCODING 119
SWIDTH 750 0
DWIDTH 7 0
BBX 7 5 0 0
BITMAP
3554
3258
2714
AA20
A380
ENDCHAR
STARTCHAR x
ENCODING 120
SWIDTH 467 0
DWIDTH 4 0
BBX 5 5 0 0
BITMAP
2240
3900
2400
7800
8D00
ENDCHAR
STARTCHAR y
ENCODING 121
SWIDTH 549 0
DWIDTH 5 0
BBX 5 7 0 -2
BITMAP
2480
3280
6340
9B00
A600
0800
2400
ENDCHAR
STARTCHAR z
ENCODING 122
SWIDTH 430 0
DWIDTH 4 0
BBX 4 5 0 0
BITMAP
2B
0A
28
60
A9
ENDCHAR
STARTCHAR braceleft
ENCODING 123
SWIDTH 424 0
DWIDTH 4 0
BBX 5 11 0 -2
BITMAP
0140
0300
0600
0500
0C00
2400
2000
3000
6000
5000
6000
ENDCHAR
STARTCHAR bar
ENCODING 124
SWIDTH 306 0
DWIDTH 3 0
BBX 1 11 1 -2
BITMAP
40
80
80
80
80
80
80
80
80
80
80
ENDCHAR
STARTCHAR braceright
ENCODING 125
SWIDTH 424 0
DWIDTH 4 0
BBX 5 11 -1 -2
BITMAP
0180
00C0
0180
0240
0200
0240
0900
0C00
1800
2400
6000
ENDCHAR
STARTCHAR asciitilde
ENCODING 126
SWIDTH 624 0
DWIDTH 6 0
BBX 6 2 0 2
BITMAP
2D50
5780
ENDCHAR
STARTCHAR nonbreakingspace
ENCODING 160
SWIDTH 293 0
DWIDTH 3 0
BBX 1 1 0 0
BITMAP
00
ENDCHAR
STARTCHAR exclamdown
ENCODING 161
SWIDTH 417 0
DWIDTH 4 0
BBX 4 8 0 -2
BITMAP
0D
04
14
20
60
A0
90
40
ENDCHAR
STARTCHAR cent
ENCODING 162
SWIDTH 487 0
DWIDTH 4 0
BBX 5 8 0 0
BITMAP
0240
0600
1A40
3200
6000
6100
2900
2000
ENDCHAR
STARTCHAR sterling
ENCODING 163
SWIDTH 665 0
DWIDTH 6 0
BBX 6 8 0 0
BITMAP
01A0
0260
0670
0990
1E40
1C00
A800
A7D0
ENDCHAR
STARTCHAR currency
ENCODING 164
SWIDTH 572 0
DWIDTH 5 0
BBX 5 6 0 1
BITMAP
0400
0E80
1980
3280
3300
6A00
ENDCHAR
STARTCHAR yen
ENCODING 165
SWIDTH 583 0
DWIDTH 5 0
BBX 7 8 0 0
BITMAP
7024
24A0
18C0
0A40
0A00
1E00
2E00
0800
ENDCHAR
STARTCHAR brokenbar
ENCODING 166
SWIDTH 292 0
DWIDTH 3 0
BBX 1 11 1 -2
BITMAP
40
80
80
80
80
00
40
80
80
80
80
ENDCHAR
STARTCHAR section
ENCODING 167
SWIDTH 583 0
DWIDTH 5 0
BBX 6 11 0 -2
BITMAP
0280
0950
0DD0
0A40
2B00
3240
3240
2A00
0C00
8C00
6400
ENDCHAR
STARTCHAR dieresis
ENCODING 168
SWIDTH 412 0
DWIDTH 4 0
BBX 4 1 0 7
BITMAP
A6
ENDCHAR
STARTCHAR copyright
ENCODING 169
SWIDTH 871 0
DWIDTH 8 0
BBX 8 8 0 0
BITMAP
06A4
1808
2195
2225
5555
6908
26A4
0A90
ENDCHAR
STARTCHAR ordfeminine
ENCODING 170
SWIDTH 564 0
DWIDTH 5 0
BBX 4 5 1 3
BITMAP
1A
66
C9
DC
A9
ENDCHAR
STARTCHAR guillemotleft
ENCODING 171
SWIDTH 662 0
DWIDTH 6 0
BBX 5 4 1 1
BITMAP
2140
9900
8900
6200
ENDCHAR
STARTCHAR logicalnot
ENCODING 172
SWIDTH 729 0
DWIDTH 7 0
BBX 5 4 1 0
BITMAP
AA80
0080
0080
0040
ENDCHAR
STARTCHAR uni00AD
ENCODING 173
SWIDTH 833 0
DWIDTH 8 0
BBX 1 1 0 0
BITMAP
00
ENDCHAR
STARTCHAR registered
ENCODING 174
SWIDTH 742 0
DWIDTH 7 0
BBX 6 7 1 1
BITMAP
1A40
6990
9650
9D50
A580
9180
2900
ENDCHAR
STARTCHAR macron
ENCODING 175
SWIDTH 392 0
DWIDTH 4 0
BBX 4 1 0 6
BITMAP
7D
ENDCHAR
STARTCHAR degree
ENCODING 176
SWIDTH 405 0
DWIDTH 4 0
BBX 3 4 1 4
BITMAP
68
8C
98
50
ENDCHAR
STARTCHAR plusminus
ENCODING 177
SWIDTH 617 0
DWIDTH 6 0
BBX 5 7 0 0
BITMAP
0400
0800
6E80
0800
0400
0000
6A80
ENDCHAR
STARTCHAR twosuperior
ENCODING 178
SWIDTH 458 0
DWIDTH 4 0
BBX 5 5 0 3
BITMAP
1A00
1640
0600
2400
6900
ENDCHAR
STARTCHAR threesuperior
ENCODING 179
SWIDTH 430 0
DWIDTH 4 0
BBX 4 5 0 3
BITMAP
0A
16
09
55
28
ENDCHAR
STARTCHAR acute
ENCODING 180
SWIDTH 322 0
DWIDTH 3 0
BBX 2 2 1 5
BITMAP
60
80
ENDCHAR
STARTCHAR mu
ENCODING 181
SWIDTH 618 0
DWIDTH 6 0
BBX 7 8 -1 -3
BITMAP
0624
0970
1890
29D0
2D60
2000
6000
5000
ENDCHAR
STARTCHAR paragraph
ENCODING 182
SWIDTH 739 0
DWIDTH 7 0
BBX 8 9 0 -1
BITMAP
01BD
0BD8
1F98
0F64
0720
0720
1650
9880
6440
ENDCHAR
STARTCHAR periodcentered
ENCODING 183
SWIDTH 353 0
DWIDTH 3 0
BBX 2 2 1 2
BITMAP
90
40
ENDCHAR
STARTCHAR cedilla
ENCODING 184
SWIDTH 301 0
DWIDTH 3 0
BBX 2 3 0 -2
BITMAP
10
20
60
ENDCHAR
STARTCHAR onesuperior
ENCODING 185
SWIDTH 403 0
DWIDTH 4 0
BBX 3 5 1 3
BITMAP
28
64
30
60
80
ENDCHAR
STARTCHAR ordmasculine
ENCODING 186
SWIDTH 498 0
DWIDTH 4 0
BBX 4 5 1 3
BITMAP
28
55
C9
CC
64
ENDCHAR
STARTCHAR guillemotright
ENCODING 187
SWIDTH 665 0
DWIDTH 6 0
BBX 6 4 0 1
BITMAP
2240
1890
1980
5200
ENDCHAR
STARTCHAR onequarter
ENCODING 188
SWIDTH 988 0
DWIDTH 9 0
BBX 7 8 1 0
BITMAP
2450
B480
3250
6260
9998
88CC
24A8
2020
ENDCHAR
STARTCHAR onehalf
ENCODING 189
SWIDTH 988 0
DWIDTH 9 0
BBX 8 8 1 0
BITMAP
2450
B480
6240
6228
9959
4818
2460
20E4
ENDCHAR
STARTCHAR threequarters
ENCODING 190
SWIDTH 1007 0
DWIDTH 9 0
BBX 9 8 0 0
BITMAP
1A0800
232400
092400
189800
998900
666640
021B00
080500
ENDCHAR
STARTCHAR questiondown
ENCODING 191
SWIDTH 516 0
DWIDTH 5 0
BBX 4 8 0 -2
BITMAP
03
01
05
1C
74
98
8C
64
ENDCHAR
STARTCHAR Agrave
ENCODING 192
SWIDTH 615 0
DWIDTH 6 0
BBX 7 10 -1 0
BITMAP
0010
0024
0028
0098
0264
0230
0BF4
0890
2490
60A0
ENDCHAR
STARTCHAR Aacute
ENCODING 193
SWIDTH 615 0
DWIDTH 6 0
BBX 7 10 -1 0
BITMAP
0004
0008
0028
0098
0264
0230
0BF4
0890
2490
60A0
ENDCHAR
STARTCHAR Acircumflex
ENCODING 194
SWIDTH 615 0
DWIDTH 6 0
BBX 8 10 -1 0
BITMAP
0004
0069
0028
0098
0264
0230
0BF4
0890
2490
60A0
ENDCHAR
STARTCHAR Atilde
ENCODING 195
SWIDTH 615 0
DWIDTH 6 0
BBX 8 10 -1 0
BITMAP
0035
0059
0028
0098
0264
0230
0BF4
0890
2490
60A0
ENDCHAR
STARTCHAR Adieresis
ENCODING 196
SWIDTH 615 0
DWIDTH 6 0
BBX 8 10 -1 0
BITMAP
0055
0055
0028
0098
0264
0230
0BF4
0890
2490
60A0
ENDCHAR
STARTCHAR Aring
ENCODING 197
SWIDTH 615 0
DWIDTH 6 0
BBX 8 10 -1 0
BITMAP
0018
0029
003C
0098
0264
0230
0BF4
0890
2490
60A0
ENDCHAR
STARTCHAR AE
ENCODING 198
SWIDTH 878 0
DWIDTH 8 0
BBX 10 8 -1 0
BITMAP
002E90
009C60
016880
022400
0BFD00
183400
246100
602E00
ENDCHAR
STARTCHAR Ccedilla
ENCODING 199
SWIDTH 533 0
DWIDTH 5 0
BBX 6 10 0 -2
BITMAP
0680
0C50
24D0
3140
6000
A000
6100
2A00
1400
2400
ENDCHAR
STARTCHAR Egrave
ENCODING 200
SWIDTH 509 0
DWIDTH 5 0
BBX 6 10 0 0
BITMAP
0100
0240
0A80
1890
3580
3000
2D00
7000
9200
6900
ENDCHAR
STARTCHAR Eacute
ENCODING 201
SWIDTH 509 0
DWIDTH 5 0
BBX 6 10 0 0
BITMAP
0040
0080
0A80
1890
3580
3000
2D00
7000
9200
6900
ENDCHAR
STARTCHAR Ecircumflex
ENCODING 202
SWIDTH 509 0
DWIDTH 5 0
BBX 6 10 0 0
BITMAP
0040
0690
0A80
1890
3580
3000
2D00
7000
9200
6900
ENDCHAR
STARTCHAR Edieresis
ENCODING 203
SWIDTH 509 0
DWIDTH 5 0
BBX 6 10 0 0
BITMAP
0550
0550
0A80
1890
3580
3000
2D00
7000
9200
6900
ENDCHAR
STARTCHAR Igrave
ENCODING 204
SWIDTH 327 0
DWIDTH 3 0
BBX 3 10 0 0
BITMAP
04
08
2C
0C
0C
18
24
30
60
80
ENDCHAR
STARTCHAR Iacute
ENCODING 205
SWIDTH 327 0
DWIDTH 3 0
BBX 4 10 0 0
BITMAP
01
06
2C
0C
0C
18
24
30
60
80
ENDCHAR
STARTCHAR Icircumflex
ENCODING 206
SWIDTH 327 0
DWIDTH 3 0
BBX 4 10 0 0
BITMAP
05
1A
2C
0C
0C
18
24
30
60
80
ENDCHAR
STARTCHAR Idieresis
ENCODING 207
SWIDTH 327 0
DWIDTH 3 0
BBX 5 10 0 0
BITMAP
1540
2640
2C00
0C00
0C00
1800
2400
3000
6000
8000
ENDCHAR
STARTCHAR Eth
ENCODING 208
SWIDTH 630 0
DWIDTH 6 0
BBX 6 8 0 0
BITMAP
2A80
14A0
1860
BD60
3090
61C0
9740
6800
ENDCHAR
STARTCHAR Ntilde
ENCODING 209
SWIDTH 708 0
DWIDTH 6 0
BBX 7 10 0 0
BITMAP
00A4
0068
0618
0A0C
2618
2624
6320
9350
82C0
8180
ENDCHAR
STARTCHAR Ograve
ENCODING 210
SWIDTH 655 0
DWIDTH 6 0
BBX 6 10 0 0
BITMAP
0040
0080
0290
0D30
2830
3030
6060
60D0
6280
2A00
ENDCHAR
STARTCHAR Oacute
ENCODING 211
SWIDTH 655 0
DWIDTH 6 0
BBX 6 10 0 0
BITMAP
0010
0060
0290
0D30
2830
3030
6060
60D0
6280
2A00
ENDCHAR
STARTCHAR Ocircumflex
ENCODING 212
SWIDTH 655 0
DWIDTH 6 0
BBX 6 10 0 0
BITMAP
0050
01A0
0290
0D30
2830
3030
6060
60D0
6280
2A00
ENDCHAR
STARTCHAR Otilde
ENCODING 213
SWIDTH 655 0
DWIDTH 6 0
BBX 7 10 0 0
BITMAP
01C4
0160
0290
0D30
2830
3030
6060
60D0
6280
2A00
ENDCHAR
STARTCHAR Odieresis
ENCODING 214
SWIDTH 655 0
DWIDTH 6 0
BBX 7 10 0 0
BITMAP
0154
0154
0290
0D30
2830
3030
6060
60D0
6280
2A00
ENDCHAR
STARTCHAR multiply
ENCODING 215
SWIDTH 573 0
DWIDTH 5 0
BBX 4 4 1 1
BITMAP
85
68
28
85
ENDCHAR
STARTCHAR Oslash
ENCODING 216
SWIDTH 655 0
DWIDTH 6 0
BBX 6 10 1 -1
BITMAP
0050
0AC0
2690
6290
98C0
C5C0
A240
D600
A800
8000
ENDCHAR
STARTCHAR Ugrave
ENCODING 217
SWIDTH 624 0
DWIDTH 6 0
BBX 6 10 0 0
BITMAP
0100
0180
1C20
0C70
18A0
30D0
62C0
9280
9980
A5D0
ENDCHAR
STARTCHAR Uacute
ENCODING 218
SWIDTH 624 0
DWIDTH 6 0
BBX 6 10 0 0
BITMAP
0010
0090
1C20
0C70
18A0
30D0
62C0
9280
9980
A5D0
ENDCHAR
STARTCHAR Ucircumflex
ENCODING 219
SWIDTH 624 0
DWIDTH 6 0
BBX 6 10 0 0
BITMAP
0040
02A0
1C20
0C70
18A0
30D0
62C0
9280
9980
A5D0
ENDCHAR
STARTCHAR Udieresis
ENCODING 220
SWIDTH 624 0
DWIDTH 6 0
BBX 6 10 0 0
BITMAP
0110
0220
1C20
0C70
18A0
30D0
62C0
9280
9980
A5D0
ENDCHAR
STARTCHAR Yacute
ENCODING 221
SWIDTH 580 0
DWIDTH 5 0
BBX 6 13 0 -3
BITMAP
0010
0090
1C20
1C70
28A0
30D0
62C0
9280
9A40
A600
0900
1800
6000
ENDCHAR
STARTCHAR Thorn
ENCODING 222
SWIDTH 527 0
DWIDTH 5 0
BBX 6 8 -1 0
BITMAP
1E00
0600
0790
0920
0C60
1E80
2400
6000
ENDCHAR
STARTCHAR germandbls
ENCODING 223
SWIDTH 520 0
DWIDTH 5 0
BBX 6 10 -1 -2
BITMAP
0190
0620
0960
0C80
0940
1980
2590
3680
6000
5000
ENDCHAR
STARTCHAR agrave
ENCODING 224
SWIDTH 541 0
DWIDTH 5 0
BBX 5 8 0 0
BITMAP
0600
0600
0100
1A80
3240
9300
9A00
6640
ENDCHAR
STARTCHAR aacute
ENCODING 225
SWIDTH 541 0
DWIDTH 5 0
BBX 5 8 0 0
BITMAP
0100
0200
0400
1A80
3240
9300
9A00
6640
ENDCHAR
STARTCHAR acircumflex
ENCODING 226
SWIDTH 541 0
DWIDTH 5 0
BBX 5 7 0 0
BITMAP
0680
0440
1A80
3240
9300
9A00
6640
ENDCHAR
STARTCHAR atilde
ENCODING 227
SWIDTH 541 0
DWIDTH 5 0
BBX 5 8 0 0
BITMAP
0A40
0680
0000
1A80
3240
9300
9A00
6640
ENDCHAR
STARTCHAR adieresis
ENCODING 228
SWIDTH 541 0
DWIDTH 5 0
BBX 5 8 0 0
BITMAP
0CC0
0440
0000
1A80
3240
9300
9A00
6640
ENDCHAR
STARTCHAR aring
ENCODING 229
SWIDTH 541 0
DWIDTH 5 0
BBX 5 8 0 0
BITMAP
0640
0980
0600
1A80
3240
9300
9A00
6640
ENDCHAR
STARTCHAR ae
ENCODING 230
SWIDTH 769 0
DWIDTH 7 0
BBX 7 5 0 0
BITMAP
1AE8
2298
93B4
9740
66A0
ENDCHAR
STARTCHAR ccedilla
ENCODING 231
SWIDTH 465 0
DWIDTH 4 0
BBX 4 7 0 -2
BITMAP
1A
73
91
90
68
20
60
ENDCHAR
STARTCHAR egrave
ENCODING 232
SWIDTH 471 0
DWIDTH 4 0
BBX 4 8 0 0
BITMAP
09
09
01
1A
33
69
90
69
ENDCHAR
STARTCHAR eacute
ENCODING 233
SWIDTH 471 0
DWIDTH 4 0
BBX 4 8 0 0
BITMAP
01
06
04
1A
33
69
90
69
ENDCHAR
STARTCHAR ecircumflex
ENCODING 234
SWIDTH 471 0
DWIDTH 4 0
BBX 5 8 0 0
BITMAP
0100
0640
1140
1A00
3300
6900
9000
6900
ENDCHAR
STARTCHAR edieresis
ENCODING 235
SWIDTH 471 0
DWIDTH 4 0
BBX 5 8 0 0
BITMAP
1980
0000
0000
1A00
2600
6400
9100
7900
ENDCHAR
STARTCHAR igrave
ENCODING 236
SWIDTH 286 0
DWIDTH 3 0
BBX 3 8 0 0
BITMAP
24
24
04
34
30
60
90
A0
ENDCHAR
STARTCHAR iacute
ENCODING 237
SWIDTH 286 0
DWIDTH 3 0
BBX 3 8 0 0
BITMAP
04
18
10
34
30
60
90
A0
ENDCHAR
STARTCHAR icircumflex
ENCODING 238
SWIDTH 286 0
DWIDTH 3 0
BBX 4 8 0 0
BITMAP
04
19
51
34
30
60
90
A0
ENDCHAR
STARTCHAR idieresis
ENCODING 239
SWIDTH 286 0
DWIDTH 3 0
BBX 4 8 0 0
BITMAP
66
00
00
34
30
60
90
A0
ENDCHAR
STARTCHAR eth
ENCODING 240
SWIDTH 524 0
DWIDTH 5 0
BBX 6 8 0 0
BITMAP
0140
02D0
0180
1A80
3240
6340
9600
6800
ENDCHAR
STARTCHAR ntilde
ENCODING 241
SWIDTH 561 0
DWIDTH 5 0
BBX 5 8 0 0
BITMAP
0A40
0680
0000
3780
3980
7240
9200
8340
ENDCHAR
STARTCHAR ograve
ENCODING 242
SWIDTH 514 0
DWIDTH 5 0
BBX 5 8 0 0
BITMAP
0600
0600
0100
1A00
3240
A300
9600
6800
ENDCHAR
STARTCHAR oacute
ENCODING 243
SWIDTH 514 0
DWIDTH 5 0
BBX 5 8 0 0
BITMAP
0140
0240
0500
1A00
3240
A300
9600
6800
ENDCHAR
STARTCHAR ocircumflex
ENCODING 244
SWIDTH 514 0
DWIDTH 5 0
BBX 5 7 0 0
BITMAP
0680
0440
1A00
3240
A300
9600
6800
ENDCHAR
STARTCHAR otilde
ENCODING 245
SWIDTH 514 0
DWIDTH 5 0
BBX 6 8 0 0
BITMAP
0A50
0680
0000
1A00
3240
A300
9600
6800
ENDCHAR
STARTCHAR odieresis
ENCODING 246
SWIDTH 514 0
DWIDTH 5 0
BBX 5 8 0 0
BITMAP
0CC0
0440
0000
1A00
3240
A300
9600
6800
ENDCHAR
STARTCHAR divide
ENCODING 247
SWIDTH 617 0
DWIDTH 6 0
BBX 4 5 1 1
BITMAP
14
14
AA
00
24
ENDCHAR
STARTCHAR oslash
ENCODING 248
SWIDTH 514 0
DWIDTH 5 0
BBX 5 7 0 -1
BITMAP
0180
1B00
3640
A740
A600
7800
4000
ENDCHAR
STARTCHAR ugrave
ENCODING 249
SWIDTH 553 0
DWIDTH 5 0
BBX 5 8 0 0
BITMAP
0200
0200
0100
2480
3240
6700
9A00
A340
ENDCHAR
STARTCHAR uacute
ENCODING 250
SWIDTH 553 0
DWIDTH 5 0
BBX 5 8 0 0
BITMAP
0040
0240
0100
2480
3240
6700
9A00
A340
ENDCHAR
STARTCHAR ucircumflex
ENCODING 251
SWIDTH 553 0
DWIDTH 5 0
BBX 5 8 0 0
BITMAP
0040
0280
0440
2480
3240
6700
9A00
A340
ENDCHAR
STARTCHAR udieresis
ENCODING 252
SWIDTH 553 0
DWIDTH 5 0
BBX 6 8 0 0
BITMAP
0990
0440
0000
2480
3240
6700
9A00
A340
ENDCHAR
STARTCHAR yacute
ENCODING 253
SWIDTH 549 0
DWIDTH 5 0
BBX 5 10 0 -2
BITMAP
0140
0240
0400
2480
3280
6340
9B00
A600
0800
2400
ENDCHAR
STARTCHAR thorn
ENCODING 254
SWIDTH 552 0
DWIDTH 5 0
BBX 6 11 -1 -3
BITMAP
0200
0300
0600
0A90
0D60
0890
14C0
2A40
2000
6000
8000
ENDCHAR
STARTCHAR ydieresis
ENCODING 255
SWIDTH 549 0
DWIDTH 5 0
BBX 5 10 0 -2
BITMAP
0CC0
0440
0000
2480
3280
6340
9B00
A600
0800
2400
ENDCHAR
STARTCHAR Amacron
ENCODING 256
SWIDTH 615 0
DWIDTH 6 0
BBX 8 9 -1 0
BITMAP
007D
0028
0098
0264
0230
0BF4
0890
2490
60A0
ENDCHAR
STARTCHAR amacron
ENCODING 257
SWIDTH 543 0
DWIDTH 5 0
BBX 5 7 0 0
BITMAP
0B80
0000
1A80
3240
9300
9A00
6640
ENDCHAR
STARTCHAR Abreve
ENCODING 258
SWIDTH 615 0
DWIDTH 6 0
BBX 8 10 -1 0
BITMAP
0011
0029
0028
0098
0264
0230
0BF4
0890
2490
60A0
ENDCHAR
STARTCHAR abreve
ENCODING 259
SWIDTH 543 0
DWIDTH 5 0
BBX 5 8 0 0
BITMAP
0880
0640
0000
1A80
3240
9300
9A00
6640
ENDCHAR
STARTCHAR Aogonek
ENCODING 260
SWIDTH 615 0
DWIDTH 6 0
BBX 7 10 -1 -2
BITMAP
0028
0098
0264
0230
0BF4
0890
2490
60A0
0080
0180
ENDCHAR
STARTCHAR aogonek
ENCODING 261
SWIDTH 541 0
DWIDTH 5 0
BBX 5 7 0 -2
BITMAP
1A80
3240
9300
9A00
6740
0500
0A00
ENDCHAR
STARTCHAR Cacute
ENCODING 262
SWIDTH 533 0
DWIDTH 5 0
BBX 6 10 0 0
BITMAP
0010
0060
0680
1C50
24D0
3140
6000
A000
6100
2A00
ENDCHAR
STARTCHAR cacute
ENCODING 263
SWIDTH 468 0
DWIDTH 4 0
BBX 5 8 0 0
BITMAP
0040
0180
0100
1A00
3300
9100
9000
7800
ENDCHAR
STARTCHAR Ccircumflex
ENCODING 264
SWIDTH 533 0
DWIDTH 5 0
BBX 6 10 0 0
BITMAP
0050
01A0
0680
1C50
24D0
3140
6000
A000
6100
2A00
ENDCHAR
STARTCHAR ccircumflex
ENCODING 265
SWIDTH 468 0
DWIDTH 4 0
BBX 5 7 0 0
BITMAP
0680
0440
1A00
3300
9100
9000
7800
ENDCHAR
STARTCHAR Cdotaccent
ENCODING 266
SWIDTH 533 0
DWIDTH 5 0
BBX 6 10 0 0
BITMAP
0040
0080
0680
1C50
24D0
3140
6000
A000
6100
2A00
ENDCHAR
STARTCHAR cdotaccent
ENCODING 267
SWIDTH 468 0
DWIDTH 4 0
BBX 4 8 0 0
BITMAP
03
01
00
1A
33
91
90
78
ENDCHAR
STARTCHAR Ccaron
ENCODING 268
SWIDTH 533 0
DWIDTH 5 0
BBX 7 10 0 0
BITMAP
0144
0090
0680
1C50
24D0
3140
6000
A000
6100
2A00
ENDCHAR
STARTCHAR ccaron
ENCODING 269
SWIDTH 468 0
DWIDTH 4 0
BBX 6 8 0 0
BITMAP
0550
0680
0000
1A00
3300
9100
9000
7800
ENDCHAR
STARTCHAR Dcaron
ENCODING 270
SWIDTH 630 0
DWIDTH 6 0
BBX 6 10 0 0
BITMAP
0110
0190
2A80
1460
1C20
2460
3090
61C0
9340
6900
ENDCHAR
STARTCHAR dcaron
ENCODING 271
SWIDTH 557 0
DWIDTH 5 0
BBX 8 8 0 0
BITMAP
0029
0098
00C0
1A80
2240
6340
9700
6680
ENDCHAR
STARTCHAR Dcroat
ENCODING 272
SWIDTH 630 0
DWIDTH 6 0
BBX 6 8 0 0
BITMAP
2A80
14A0
1860
7D60
3090
61C0
9740
6800
ENDCHAR
STARTCHAR dcroat
ENCODING 273
SWIDTH 557 0
DWIDTH 5 0
BBX 6 8 0 0
BITMAP
0020
02E0
00C0
1A80
2240
6340
9700
6680
ENDCHAR
STARTCHAR Emacron
ENCODING 274
SWIDTH 509 0
DWIDTH 5 0
BBX 6 9 0 0
BITMAP
07D0
0A80
1890
3580
3000
2D00
7000
9200
6900
ENDCHAR
STARTCHAR emacron
ENCODING 275
SWIDTH 471 0
DWIDTH 4 0
BBX 5 7 0 0
BITMAP
1F40
0000
1A00
3300
6900
9000
6900
ENDCHAR
STARTCHAR Ebreve
ENCODING 276
SWIDTH 509 0
DWIDTH 5 0
BBX 6 10 0 0
BITMAP
0110
0290
0A80
1890
3580
3000
2D00
7000
9200
6900
ENDCHAR
STARTCHAR ebreve
ENCODING 277
SWIDTH 471 0
DWIDTH 4 0
BBX 5 8 0 0
BITMAP
0840
0A00
0000
1A00
3300
6900
9000
6900
ENDCHAR
STARTCHAR Edotaccent
ENCODING 278
SWIDTH 509 0
DWIDTH 5 0
BBX 6 10 0 0
BITMAP
0100
0240
0A80
1890
3580
3000
2D00
7000
9200
6900
ENDCHAR
STARTCHAR edotaccent
ENCODING 279
SWIDTH 471 0
DWIDTH 4 0
BBX 4 8 0 0
BITMAP
06
00
00
1A
33
69
90
69
ENDCHAR
STARTCHAR Eogonek
ENCODING 280
SWIDTH 509 0
DWIDTH 5 0
BBX 6 10 0 -2
BITMAP
0A80
1890
3580
3000
2D00
7000
9200
6900
2000
2400
ENDCHAR
STARTCHAR eogonek
ENCODING 281
SWIDTH 471 0
DWIDTH 4 0
BBX 4 7 0 -2
BITMAP
1A
33
69
90
69
10
24
ENDCHAR
STARTCHAR Ecaron
ENCODING 282
SWIDTH 509 0
DWIDTH 5 0
BBX 6 10 0 0
BITMAP
0110
0240
0A80
1890
3580
3000
2D00
7000
9200
6900
ENDCHAR
STARTCHAR ecaron
ENCODING 283
SWIDTH 471 0
DWIDTH 4 0
BBX 5 8 0 0
BITMAP
0880
0A40
0000
1A00
3300
6900
9000
6900
ENDCHAR
STARTCHAR Gcircumflex
ENCODING 284
SWIDTH 598 0
DWIDTH 5 0
BBX 6 10 0 0
BITMAP
0050
01A0
0680
0C50
2490
31C0
6000
92D0
6240
2900
ENDCHAR
STARTCHAR gcircumflex
ENCODING 285
SWIDTH 526 0
DWIDTH 5 0
BBX 5 9 0 -2
BITMAP
0680
0440
1A40
3240
A340
9700
6A00
0800
2400
ENDCHAR
STARTCHAR Gbreve
ENCODING 286
SWIDTH 598 0
DWIDTH 5 0
BBX 6 10 0 0
BITMAP
0040
01A0
0680
0C50
2490
31C0
6000
92D0
6240
2900
ENDCHAR
STARTCHAR gbreve
ENCODING 287
SWIDTH 526 0
DWIDTH 5 0
BBX 5 10 0 -2
BITMAP
0880
0640
0000
1A40
3240
A340
9700
6A00
0800
2400
ENDCHAR
STARTCHAR Gdotaccent
ENCODING 288
SWIDTH 598 0
DWIDTH 5 0
BBX 6 10 0 0
BITMAP
0040
0080
0680
0C50
2490
31C0
6000
92D0
6240
2900
ENDCHAR
STARTCHAR gdotaccent
ENCODING 289
SWIDTH 526 0
DWIDTH 5 0
BBX 5 10 0 -2
BITMAP
0300
0100
0000
1A40
3240
A340
9700
6A00
0800
2400
ENDCHAR
STARTCHAR Gcommaaccent
ENCODING 290
SWIDTH 598 0
DWIDTH 5 0
BBX 6 11 0 -3
BITMAP
0680
0C50
2490
31C0
6000
92D0
6240
2900
1000
3000
1000
ENDCHAR
STARTCHAR gcommaaccent
ENCODING 291
SWIDTH 526 0
DWIDTH 5 0
BBX 5 10 0 -2
BITMAP
0100
0300
0000
1A40
3240
A340
9700
6A00
0800
2400
ENDCHAR
STARTCHAR Hcircumflex
ENCODING 292
SWIDTH 668 0
DWIDTH 6 0
BBX 7 10 0 0
BITMAP
0080
0290
2824
0C24
1830
2860
3480
20C0
9180
81D0
ENDCHAR
STARTCHAR hcircumflex
ENCODING 293
SWIDTH 555 0
DWIDTH 5 0
BBX 5 10 0 0
BITMAP
0500
2600
0800
1800
1800
2740
3A80
7300
9600
8340
ENDCHAR
STARTCHAR Hbar
ENCODING 294
SWIDTH 668 0
DWIDTH 6 0
BBX 7 8 0 0
BITMAP
2824
0C24
6EF8
1860
39A0
30C0
9180
81D0
ENDCHAR
STARTCHAR hbar
ENCODING 295
SWIDTH 555 0
DWIDTH 5 0
BBX 5 8 0 0
BITMAP
0800
2E00
1800
2740
3A80
7300
9600
8340
ENDCHAR
STARTCHAR Itilde
ENCODING 296
SWIDTH 327 0
DWIDTH 3 0
BBX 5 10 0 0
BITMAP
1C40
1600
2C00
0C00
0C00
1800
2400
3000
6000
8000
ENDCHAR
STARTCHAR itilde
ENCODING 297
SWIDTH 286 0
DWIDTH 3 0
BBX 4 8 0 0
BITMAP
35
49
00
34
30
60
90
A0
ENDCHAR
STARTCHAR Imacron
ENCODING 298
SWIDTH 327 0
DWIDTH 3 0
BBX 5 9 0 0
BITMAP
2F40
2C00
0C00
0C00
1800
2400
3000
6000
8000
ENDCHAR
STARTCHAR imacron
ENCODING 299
SWIDTH 286 0
DWIDTH 3 0
BBX 4 7 0 0
BITMAP
7D
00
34
30
60
90
A0
ENDCHAR
STARTCHAR Ibreve
ENCODING 300
SWIDTH 327 0
DWIDTH 3 0
BBX 5 10 0 0
BITMAP
0440
0A00
2C00
0C00
0C00
1800
2400
3000
6000
8000
ENDCHAR
STARTCHAR ibreve
ENCODING 301
SWIDTH 286 0
DWIDTH 3 0
BBX 4 8 0 0
BITMAP
21
28
00
34
30
60
90
A0
ENDCHAR
STARTCHAR Iogonek
ENCODING 302
SWIDTH 327 0
DWIDTH 3 0
BBX 4 10 -1 -2
BITMAP
0B
03
03
06
09
0C
24
50
80
90
ENDCHAR
STARTCHAR iogonek
ENCODING 303
SWIDTH 297 0
DWIDTH 3 0
BBX 3 11 0 -3
BITMAP
1C
04
00
24
20
20
50
A0
50
80
90
ENDCHAR
STARTCHAR Idotaccent
ENCODING 304
SWIDTH 327 0
DWIDTH 3 0
BBX 3 10 0 0
BITMAP
04
08
2C
0C
0C
18
24
30
60
80
ENDCHAR
STARTCHAR dotlessi
ENCODING 305
SWIDTH 286 0
DWIDTH 3 0
BBX 3 5 0 0
BITMAP
34
30
60
90
A0
ENDCHAR
STARTCHAR IJ
ENCODING 306
SWIDTH 720 0
DWIDTH 6 0
BBX 7 11 0 -3
BITMAP
2DA8
0D58
0C28
1824
2430
3060
6090
81C0
0240
0600
1800
ENDCHAR
STARTCHAR ij
ENCODING 307
SWIDTH 567 0
DWIDTH 5 0
BBX 5 11 0 -3
BITMAP
18C0
0040
0000
3580
3180
6240
9240
A300
0500
0800
2400
ENDCHAR
STARTCHAR Jcircumflex
ENCODING 308
SWIDTH 393 0
DWIDTH 4 0
BBX 7 13 -2 -3
BITMAP
0010
00A8
02A0
0660
0060
0090
00C0
0180
0240
0300
0900
1800
6000
ENDCHAR
STARTCHAR jcircumflex
ENCODING 309
SWIDTH 282 0
DWIDTH 3 0
BBX 6 10 -2 -3
BITMAP
0080
0590
0300
0300
0300
0600
0900
0C00
1400
6000
ENDCHAR
STARTCHAR Kcommaaccent
ENCODING 310
SWIDTH 616 0
DWIDTH 6 0
BBX 7 11 -1 -3
BITMAP
1E18
0618
0624
0990
0E40
1A80
24D0
6074
0400
0900
0800
ENDCHAR
STARTCHAR kcommaaccent
ENCODING 311
SWIDTH 497 0
DWIDTH 4 0
BBX 5 11 0 -3
BITMAP
0400
0C00
1800
2640
2640
3800
AC00
8A00
1000
3000
5000
ENDCHAR
STARTCHAR kgreenlandic
ENCODING 312
SWIDTH 497 0
DWIDTH 4 0
BBX 5 5 0 0
BITMAP
3240
3640
7800
AC00
8A00
ENDCHAR
STARTCHAR Lacute
ENCODING 313
SWIDTH 517 0
DWIDTH 5 0
BBX 6 10 0 0
BITMAP
0050
0080
0680
0C80
19C0
2740
3000
6000
9500
EA00
ENDCHAR
STARTCHAR lacute
ENCODING 314
SWIDTH 279 0
DWIDTH 3 0
BBX 4 10 0 0
BITMAP
01
06
08
18
24
30
20
50
90
A0
ENDCHAR
STARTCHAR Lcommaaccent
ENCODING 315
SWIDTH 517 0
DWIDTH 5 0
BBX 5 11 0 -3
BITMAP
0680
0C80
19C0
2740
3000
6000
9500
EA00
1000
6000
4000
ENDCHAR
STARTCHAR lcommaaccent
ENCODING 316
SWIDTH 279 0
DWIDTH 3 0
BBX 3 11 0 -3
BITMAP
04
08
18
24
30
60
90
A0
40
90
80
ENDCHAR
STARTCHAR Lcaron
ENCODING 317
SWIDTH 517 0
DWIDTH 5 0
BBX 7 10 0 0
BITMAP
0004
0008
0690
0C80
19C0
2740
3000
6000
9500
EA00
ENDCHAR
STARTCHAR lcaron
ENCODING 318
SWIDTH 467 0
DWIDTH 4 0
BBX 5 8 0 0
BITMAP
08C0
1880
1400
2000
2000
6000
9000
A000
ENDCHAR
STARTCHAR Ldot
ENCODING 319
SWIDTH 668 0
DWIDTH 6 0
BBX 6 8 0 0
BITMAP
0680
0C80
19C0
2740
3030
6000
9500
EA00
ENDCHAR
STARTCHAR ldot
ENCODING 320
SWIDTH 489 0
DWIDTH 4 0
BBX 5 8 0 0
BITMAP
0800
1800
1400
2000
2340
6100
9000
A000
ENDCHAR
STARTCHAR Lslash
ENCODING 321
SWIDTH 517 0
DWIDTH 5 0
BBX 5 8 0 0
BITMAP
0680
0C80
1980
2640
7800
A000
9500
EA00
ENDCHAR
STARTCHAR lslash
ENCODING 322
SWIDTH 279 0
DWIDTH 3 0
BBX 4 8 0 0
BITMAP
1E
18
24
20
20
60
90
A0
ENDCHAR
STARTCHAR Nacute
ENCODING 323
SWIDTH 708 0
DWIDTH 6 0
BBX 7 10 0 0
BITMAP
0004
0024
0618
0A0C
2618
2624
6320
9350
82C0
8180
ENDCHAR
STARTCHAR nacute
ENCODING 324
SWIDTH 561 0
DWIDTH 5 0
BBX 5 8 0 0
BITMAP
0040
0240
0100
3780
3980
7240
9200
8340
ENDCHAR
STARTCHAR Ncommaaccent
ENCODING 325
SWIDTH 708 0
DWIDTH 6 0
BBX 7 11 0 -3
BITMAP
0618
0A0C
2618
2624
6320
9350
82C0
8180
0400
0900
0800
ENDCHAR
STARTCHAR ncommaaccent
ENCODING 326
SWIDTH 561 0
DWIDTH 5 0
BBX 5 8 0 -3
BITMAP
3780
3980
7240
9200
8340
1000
3000
5000
ENDCHAR
STARTCHAR Ncaron
ENCODING 327
SWIDTH 708 0
DWIDTH 6 0
BBX 7 10 0 0
BITMAP
0044
0064
0618
0A0C
2618
2624
6320
9350
82C0
8180
ENDCHAR
STARTCHAR ncaron
ENCODING 328
SWIDTH 561 0
DWIDTH 5 0
BBX 6 8 0 0
BITMAP
0550
0680
0000
3780
3980
7240
9200
8340
ENDCHAR
STARTCHAR Eng
ENCODING 330
SWIDTH 698 0
DWIDTH 6 0
BBX 7 11 0 -3
BITMAP
0618
0E1C
2618
2614
5624
9320
8290
81C0
0240
0600
1800
ENDCHAR
STARTCHAR eng
ENCODING 331
SWIDTH 561 0
DWIDTH 5 0
BBX 5 8 0 -3
BITMAP
3780
3980
7240
9300
8600
0900
1800
2000
ENDCHAR
STARTCHAR Omacron
ENCODING 332
SWIDTH 655 0
DWIDTH 6 0
BBX 7 9 0 0
BITMAP
02F4
0290
0D30
2830
3030
6060
60D0
6280
2A00
ENDCHAR
STARTCHAR omacron
ENCODING 333
SWIDTH 514 0
DWIDTH 5 0
BBX 5 7 0 0
BITMAP
0B80
0000
1A00
3240
A300
9600
6800
ENDCHAR
STARTCHAR Obreve
ENCODING 334
SWIDTH 655 0
DWIDTH 6 0
BBX 7 10 0 0
BITMAP
0044
00A0
0290
0D30
2830
3030
6060
60D0
6280
2A00
ENDCHAR
STARTCHAR obreve
ENCODING 335
SWIDTH 514 0
DWIDTH 5 0
BBX 5 8 0 0
BITMAP
0840
0640
0000
1A00
3240
A300
9600
6800
ENDCHAR
STARTCHAR Ohungarumlaut
ENCODING 336
SWIDTH 655 0
DWIDTH 6 0
BBX 7 10 0 0
BITMAP
0044
01A4
0290
0D30
2830
3030
6060
60D0
6280
2A00
ENDCHAR
STARTCHAR ohungarumlaut
ENCODING 337
SWIDTH 514 0
DWIDTH 5 0
BBX 5 8 0 0
BITMAP
0140
0980
0500
1A00
3240
A300
9600
6800
ENDCHAR
STARTCHAR OE
ENCODING 338
SWIDTH 900 0
DWIDTH 8 0
BBX 8 8 1 0
BITMAP
0AAA
28A2
70C6
90C0
C0B4
C1C0
C348
69F4
ENDCHAR
STARTCHAR oe
ENCODING 339
SWIDTH 777 0
DWIDTH 7 0
BBX 7 5 0 0
BITMAP
1A68
35CC
62A4
6340
29A4
ENDCHAR
STARTCHAR Racute
ENCODING 340
SWIDTH 623 0
DWIDTH 6 0
BBX 6 10 0 0
BITMAP
0040
0080
1A80
1860
1C60
29C0
2E40
3A00
A300
81C0
ENDCHAR
STARTCHAR racute
ENCODING 341
SWIDTH 407 0
DWIDTH 4 0
BBX 4 8 0 0
BITMAP
01
02
04
37
39
70
90
80
ENDCHAR
STARTCHAR Rcommaaccent
ENCODING 342
SWIDTH 623 0
DWIDTH 6 0
BBX 6 11 0 -3
BITMAP
1A80
1860
1C60
29C0
2E40
3A00
A300
81C0
1000
2000
2000
ENDCHAR
STARTCHAR rcommaaccent
ENCODING 343
SWIDTH 407 0
DWIDTH 4 0
BBX 5 8 -1 -3
BITMAP
0DC0
0E40
1C00
2800
2000
1000
2000
5000
ENDCHAR
STARTCHAR Rcaron
ENCODING 344
SWIDTH 623 0
DWIDTH 6 0
BBX 6 10 0 0
BITMAP
0110
0280
1A80
1860
1C60
29C0
2E40
3A00
A300
81C0
ENDCHAR
STARTCHAR rcaron
ENCODING 345
SWIDTH 407 0
DWIDTH 4 0
BBX 5 8 0 0
BITMAP
0880
0A40
0000
3700
3900
7000
9000
8000
ENDCHAR
STARTCHAR Sacute
ENCODING 346
SWIDTH 474 0
DWIDTH 4 0
BBX 5 10 0 0
BITMAP
0040
0080
0A40
24C0
3180
3640
2800
0C00
8900
6800
ENDCHAR
STARTCHAR sacute
ENCODING 347
SWIDTH 423 0
DWIDTH 4 0
BBX 4 8 0 0
BITMAP
01
02
04
2A
31
24
58
A4
ENDCHAR
STARTCHAR Scircumflex
ENCODING 348
SWIDTH 474 0
DWIDTH 4 0
BBX 6 10 0 0
BITMAP
0040
0690
0A40
24C0
3180
3640
2800
0C00
8900
6800
ENDCHAR
STARTCHAR scircumflex
ENCODING 349
SWIDTH 423 0
DWIDTH 4 0
BBX 5 8 0 0
BITMAP
0100
0A00
1140
2A00
3100
2400
5800
A400
ENDCHAR
STARTCHAR Scedilla
ENCODING 350
SWIDTH 474 0
DWIDTH 4 0
BBX 5 10 0 -2
BITMAP
0A40
24C0
3180
3500
1C00
4900
9800
2000
2000
5000
ENDCHAR
STARTCHAR scedilla
ENCODING 351
SWIDTH 423 0
DWIDTH 4 0
BBX 4 7 0 -2
BITMAP
2A
31
24
58
A4
20
90
ENDCHAR
STARTCHAR Scaron
ENCODING 352
SWIDTH 474 0
DWIDTH 4 0
BBX 6 10 0 0
BITMAP
0110
0240
0A40
24C0
3180
3640
2800
0C00
8900
6800
ENDCHAR
STARTCHAR scaron
ENCODING 353
SWIDTH 423 0
DWIDTH 4 0
BBX 5 8 0 0
BITMAP
0880
0A40
0000
2A00
3100
2400
5800
A400
ENDCHAR
STARTCHAR Tcommaaccent
ENCODING 354
SWIDTH 471 0
DWIDTH 4 0
BBX 6 11 0 -3
BITMAP
3910
6390
1600
0900
0C00
1800
2400
6000
1000
3000
5000
ENDCHAR
STARTCHAR tcommaaccent
ENCODING 355
SWIDTH 358 0
DWIDTH 3 0
BBX 4 9 0 -3
BITMAP
18
79
30
60
90
74
40
90
80
ENDCHAR
STARTCHAR Tcaron
ENCODING 356
SWIDTH 471 0
DWIDTH 4 0
BBX 6 10 0 0
BITMAP
0110
0190
3910
6390
1600
0900
0C00
1800
2400
6000
ENDCHAR
STARTCHAR tcaron
ENCODING 357
SWIDTH 497 0
DWIDTH 4 0
BBX 5 8 1 0
BITMAP
0240
1200
3000
B400
9000
C000
8000
E000
ENDCHAR
STARTCHAR Tbar
ENCODING 358
SWIDTH 471 0
DWIDTH 4 0
BBX 6 8 0 0
BITMAP
3910
6390
1600
0900
6E00
1800
2400
6000
ENDCHAR
STARTCHAR tbar
ENCODING 359
SWIDTH 358 0
DWIDTH 3 0
BBX 4 7 0 0
BITMAP
04
18
79
30
78
50
74
ENDCHAR
STARTCHAR Utilde
ENCODING 360
SWIDTH 624 0
DWIDTH 6 0
BBX 6 10 0 0
BITMAP
0290
0590
1C20
0C70
18A0
30D0
62C0
9280
9980
A5D0
ENDCHAR
STARTCHAR utilde
ENCODING 361
SWIDTH 553 0
DWIDTH 5 0
BBX 6 8 0 0
BITMAP
0710
0580
0000
2480
3240
6700
9A00
A340
ENDCHAR
STARTCHAR Umacron
ENCODING 362
SWIDTH 624 0
DWIDTH 6 0
BBX 6 9 0 0
BITMAP
02E0
1C20
0C70
18A0
30D0
62C0
9280
9980
A5D0
ENDCHAR
STARTCHAR umacron
ENCODING 363
SWIDTH 553 0
DWIDTH 5 0
BBX 5 7 0 0
BITMAP
0B80
0000
2480
3240
6700
9A00
A340
ENDCHAR
STARTCHAR Ubreve
ENCODING 364
SWIDTH 624 0
DWIDTH 6 0
BBX 6 10 0 0
BITMAP
0110
0290
1C20
0C70
18A0
30D0
62C0
9280
9980
A5D0
ENDCHAR
STARTCHAR ubreve
ENCODING 365
SWIDTH 553 0
DWIDTH 5 0
BBX 6 8 0 0
BITMAP
0550
0680
0000
2480
3240
6700
9A00
A340
ENDCHAR
STARTCHAR Uring
ENCODING 366
SWIDTH 624 0
DWIDTH 6 0
BBX 6 10 0 0
BITMAP
0190
0260
1C60
0C70
18A0
30D0
62C0
9280
9980
A5D0
ENDCHAR
STARTCHAR uring
ENCODING 367
SWIDTH 553 0
DWIDTH 5 0
BBX 5 8 0 0
BITMAP
0280
0580
0240
2480
3240
6700
9A00
A340
ENDCHAR
STARTCHAR Uhungarumlaut
ENCODING 368
SWIDTH 624 0
DWIDTH 6 0
BBX 6 10 0 0
BITMAP
0050
0260
1C20
0C70
18A0
30D0
62C0
9280
9980
A5D0
ENDCHAR
STARTCHAR uhungarumlaut
ENCODING 369
SWIDTH 553 0
DWIDTH 5 0
BBX 6 8 0 0
BITMAP
0150
0680
0400
2480
3240
6700
9A00
A340
ENDCHAR
STARTCHAR Uogonek
ENCODING 370
SWIDTH 684 0
DWIDTH 6 0
BBX 7 10 0 -2
BITMAP
0D14
0C30
1860
24A0
31D0
62C0
9580
74D0
0140
0180
ENDCHAR
STARTCHAR uogonek
ENCODING 371
SWIDTH 553 0
DWIDTH 5 0
BBX 5 7 0 -2
BITMAP
2480
3240
6700
9A00
A340
0500
0A00
ENDCHAR
STARTCHAR Wcircumflex
ENCODING 372
SWIDTH 941 0
DWIDTH 8 0
BBX 9 10 0 0
BITMAP
001400
006800
2C0180
0911C0
1C70C0
25D180
32C240
69C200
688900
30A400
ENDCHAR
STARTCHAR wcircumflex
ENCODING 373
SWIDTH 750 0
DWIDTH 7 0
BBX 7 8 0 0
BITMAP
0040
0190
0510
3554
3258
2714
AA20
A380
ENDCHAR
STARTCHAR Ycircumflex
ENCODING 374
SWIDTH 580 0
DWIDTH 5 0
BBX 6 13 0 -3
BITMAP
0080
0290
1C20
1C70
28A0
30D0
62C0
9280
9A40
A600
0900
1800
6000
ENDCHAR
STARTCHAR ycircumflex
ENCODING 375
SWIDTH 549 0
DWIDTH 5 0
BBX 5 9 0 -2
BITMAP
0680
0440
2480
3280
6340
9B00
A600
0800
2400
ENDCHAR
STARTCHAR Ydieresis
ENCODING 376
SWIDTH 580 0
DWIDTH 5 0
BBX 6 12 0 -3
BITMAP
0770
1D30
1C70
28A0
30D0
62C0
9280
9A40
A600
0900
1800
6000
ENDCHAR
STARTCHAR Zacute
ENCODING 377
SWIDTH 501 0
DWIDTH 5 0
BBX 6 10 0 0
BITMAP
0040
0180
21D0
2EC0
0240
0600
1C00
3400
9000
EF00
ENDCHAR
STARTCHAR zacute
ENCODING 378
SWIDTH 430 0
DWIDTH 4 0
BBX 4 8 0 0
BITMAP
01
02
04
2B
0A
28
60
A9
ENDCHAR
STARTCHAR Zdotaccent
ENCODING 379
SWIDTH 501 0
DWIDTH 5 0
BBX 6 10 0 0
BITMAP
0100
0200
21D0
2EC0
0240
0600
1C00
3400
9000
EF00
ENDCHAR
STARTCHAR zdotaccent
ENCODING 380
SWIDTH 430 0
DWIDTH 4 0
BBX 4 8 0 0
BITMAP
09
00
00
2B
0A
28
60
A9
ENDCHAR
STARTCHAR Zcaron
ENCODING 381
SWIDTH 501 0
DWIDTH 5 0
BBX 6 10 0 0
BITMAP
0500
0240
21D0
2EC0
0240
0600
1C00
3400
9000
EF00
ENDCHAR
STARTCHAR zcaron
ENCODING 382
SWIDTH 430 0
DWIDTH 4 0
BBX 5 8 0 0
BITMAP
0880
0A00
0000
2B00
0A00
2800
6000
A900
ENDCHAR
STARTCHAR florin
ENCODING 402
SWIDTH 466 0
DWIDTH 4 0
BBX 8 11 -2 -3
BITMAP
0018
0065
009C
00C4
02E0
0240
0300
0300
0600
4900
6800
ENDCHAR
STARTCHAR AEacute
ENCODING 508
SWIDTH 878 0
DWIDTH 8 0
BBX 10 10 -1 0
BITMAP
000100
000600
002E90
009C60
016880
022400
0BFD00
183400
246100
602E00
ENDCHAR
STARTCHAR aeacute
ENCODING 509
SWIDTH 770 0
DWIDTH 7 0
BBX 7 8 0 0
BITMAP
0040
0080
0100
1AE8
2298
93B4
9740
66A0
ENDCHAR
STARTCHAR Scommaaccent
ENCODING 536
SWIDTH 474 0
DWIDTH 4 0
BBX 5 11 0 -3
BITMAP
0A40
24C0
3180
3640
2800
0C00
8900
6800
1000
3000
5000
ENDCHAR
STARTCHAR scommaaccent
ENCODING 537
SWIDTH 423 0
DWIDTH 4 0
BBX 4 8 0 -3
BITMAP
2A
31
24
58
A4
10
60
40
ENDCHAR
STARTCHAR dotlessj
ENCODING 567
SWIDTH 277 0
DWIDTH 3 0
BBX 4 8 -2 -3
BITMAP
03
03
03
06
09
0C
24
60
ENDCHAR
STARTCHAR circumflex
ENCODING 710
SWIDTH 354 0
DWIDTH 3 0
BBX 3 2 0 6
BITMAP
18
58
ENDCHAR
STARTCHAR caron
ENCODING 711
SWIDTH 381 0
DWIDTH 3 0
BBX 4 2 0 6
BITMAP
55
64
ENDCHAR
STARTCHAR breve
ENCODING 728
SWIDTH 344 0
DWIDTH 3 0
BBX 3 2 0 6
BITMAP
54
64
ENDCHAR
STARTCHAR dotaccent
ENCODING 729
SWIDTH 217 0
DWIDTH 2 0
BBX 2 2 0 6
BITMAP
60
10
ENDCHAR
STARTCHAR ring
ENCODING 730
SWIDTH 402 0
DWIDTH 4 0
BBX 3 3 1 5
BITMAP
64
98
60
ENDCHAR
STARTCHAR ogonek
ENCODING 731
SWIDTH 311 0
DWIDTH 3 0
BBX 2 3 0 -3
BITMAP
20
50
60
ENDCHAR
STARTCHAR tilde
ENCODING 732
SWIDTH 397 0
DWIDTH 4 0
BBX 4 2 0 6
BITMAP
25
49
ENDCHAR
STARTCHAR hungarumlaut
ENCODING 733
SWIDTH 392 0
DWIDTH 4 0
BBX 4 2 0 5
BITMAP
26
58
ENDCHAR
STARTCHAR pi
ENCODING 960
SWIDTH 640 0
DWIDTH 6 0
BBX 6 5 0 0
BITMAP
6FE0
1580
2240
6300
D280
ENDCHAR
STARTCHAR uni1E02
ENCODING 7682
SWIDTH 551 0
DWIDTH 5 0
BBX 6 10 0 0
BITMAP
0140
0240
2A80
2490
2890
3580
7B00
5240
9240
6900
ENDCHAR
STARTCHAR uni1E03
ENCODING 7683
SWIDTH 525 0
DWIDTH 5 0
BBX 5 8 0 0
BITMAP
09C0
1840
2400
3B00
7240
6240
9600
6800
ENDCHAR
STARTCHAR uni1E0A
ENCODING 7690
SWIDTH 630 0
DWIDTH 6 0
BBX 6 10 0 0
BITMAP
0140
0140
2A80
1460
1C20
2460
3090
61C0
9340
6900
ENDCHAR
STARTCHAR uni1E0B
ENCODING 7691
SWIDTH 557 0
DWIDTH 5 0
BBX 6 8 0 0
BITMAP
1C20
0490
00C0
1A80
2240
6340
9700
6680
ENDCHAR
STARTCHAR uni1E1E
ENCODING 7710
SWIDTH 518 0
DWIDTH 5 0
BBX 6 10 0 0
BITMAP
0040
0180
3910
6790
4900
0C00
2F40
2800
3000
5000
ENDCHAR
STARTCHAR uni1E1F
ENCODING 7711
SWIDTH 393 0
DWIDTH 4 0
BBX 5 11 0 -1
BITMAP
0700
0240
0980
0940
1800
6E00
3000
2000
6000
9000
8000
ENDCHAR
STARTCHAR uni1E40
ENCODING 7744
SWIDTH 931 0
DWIDTH 8 0
BBX 10 10 -1 0
BITMAP
000100
000200
007090
01A280
0265C0
059980
08D640
18E300
20E300
90C280
ENDCHAR
STARTCHAR uni1E41
ENCODING 7745
SWIDTH 814 0
DWIDTH 7 0
BBX 7 8 0 0
BITMAP
00C0
0040
0000
3768
399C
7264
9330
8528
ENDCHAR
STARTCHAR uni1E56
ENCODING 7766
SWIDTH 553 0
DWIDTH 5 0
BBX 6 10 0 0
BITMAP
0040
0180
1A80
2450
0C90
29C0
3A00
6000
9000
8000
ENDCHAR
STARTCHAR uni1E57
ENCODING 7767
SWIDTH 550 0
DWIDTH 5 0
BBX 6 11 -1 -3
BITMAP
0180
0000
0000
0D90
0D60
1890
14C0
2A40
2000
6000
9000
ENDCHAR
STARTCHAR uni1E60
ENCODING 7776
SWIDTH 474 0
DWIDTH 4 0
BBX 5 10 0 0
BITMAP
0100
0240
0A40
24C0
3180
3640
2800
0C00
8900
6800
ENDCHAR
STARTCHAR uni1E61
ENCODING 7777
SWIDTH 423 0
DWIDTH 4 0
BBX 4 8 0 0
BITMAP
06
00
00
2A
31
24
58
A4
ENDCHAR
STARTCHAR uni1E6A
ENCODING 7786
SWIDTH 430 0
DWIDTH 4 0
BBX 6 10 0 0
BITMAP
0100
0240
7910
9780
4900
0C00
1C00
1800
3000
5000
ENDCHAR
STARTCHAR uni1E6B
ENCODING 7787
SWIDTH 358 0
DWIDTH 3 0
BBX 4 8 0 0
BITMAP
0A
04
0C
39
30
20
60
38
ENDCHAR
STARTCHAR Wgrave
ENCODING 7808
SWIDTH 941 0
DWIDTH 8 0
BBX 9 10 0 0
BITMAP
001000
002000
2C0180
0911C0
1C70C0
25D180
32C240
69C200
688900
30A400
ENDCHAR
STARTCHAR wgrave
ENCODING 7809
SWIDTH 750 0
DWIDTH 7 0
BBX 7 8 0 0
BITMAP
0240
0140
0040
3554
3258
2714
AA20
A380
ENDCHAR
STARTCHAR Wacute
ENCODING 7810
SWIDTH 941 0
DWIDTH 8 0
BBX 9 10 0 0
BITMAP
000400
001800
2C0180
0911C0
1C70C0
25D180
32C240
69C200
688900
30A400
ENDCHAR
STARTCHAR wacute
ENCODING 7811
SWIDTH 750 0
DWIDTH 7 0
BBX 7 8 0 0
BITMAP
0040
0080
0100
3554
3258
2714
AA20
A380
ENDCHAR
STARTCHAR Wdieresis
ENCODING 7812
SWIDTH 941 0
DWIDTH 8 0
BBX 9 10 0 0
BITMAP
005500
005500
2C0180
0911C0
1C70C0
25D180
32C240
69C200
688900
30A400
ENDCHAR
STARTCHAR wdieresis
ENCODING 7813
SWIDTH 750 0
DWIDTH 7 0
BBX 7 8 0 0
BITMAP
0670
0110
0000
3554
3258
2714
AA20
A380
ENDCHAR
STARTCHAR Ygrave
ENCODING 7922
SWIDTH 580 0
DWIDTH 5 0
BBX 6 13 0 -3
BITMAP
0100
0140
1C20
1C70
28A0
30D0
62C0
9280
9A40
A600
0900
1800
6000
ENDCHAR
STARTCHAR ygrave
ENCODING 7923
SWIDTH 549 0
DWIDTH 5 0
BBX 5 10 0 -2
BITMAP
0600
0600
0100
2480
3280
6340
9B00
A600
0800
2400
ENDCHAR
STARTCHAR endash
ENCODING 8211
SWIDTH 751 0
DWIDTH 7 0
BBX 5 1 1 3
BITMAP
FF80
ENDCHAR
STARTCHAR emdash
ENCODING 8212
SWIDTH 1066 0
DWIDTH 10 0
BBX 8 1 1 3
BITMAP
FFFE
ENDCHAR
STARTCHAR quoteleft
ENCODING 8216
SWIDTH 268 0
DWIDTH 2 0
BBX 2 3 1 6
BITMAP
10
90
90
ENDCHAR
STARTCHAR quoteright
ENCODING 8217
SWIDTH 268 0
DWIDTH 2 0
BBX 2 3 1 6
BITMAP
10
20
50
ENDCHAR
STARTCHAR quotesinglbase
ENCODING 8218
SWIDTH 268 0
DWIDTH 2 0
BBX 2 3 0 -1
BITMAP
50
60
80
ENDCHAR
STARTCHAR quotedblleft
ENCODING 8220
SWIDTH 485 0
DWIDTH 4 0
BBX 4 3 1 6
BITMAP
11
58
98
ENDCHAR
STARTCHAR quotedblright
ENCODING 8221
SWIDTH 480 0
DWIDTH 4 0
BBX 4 3 1 6
BITMAP
11
36
54
ENDCHAR
STARTCHAR quotedblbase
ENCODING 8222
SWIDTH 463 0
DWIDTH 4 0
BBX 4 3 0 -1
BITMAP
54
69
98
ENDCHAR
STARTCHAR dagger
ENCODING 8224
SWIDTH 488 0
DWIDTH 4 0
BBX 4 8 1 0
BITMAP
18
28
B9
30
60
90
80
40
ENDCHAR
STARTCHAR daggerdbl
ENCODING 8225
SWIDTH 488 0
DWIDTH 4 0
BBX 4 8 1 0
BITMAP
18
28
79
30
B4
90
80
40
ENDCHAR
STARTCHAR bullet
ENCODING 8226
SWIDTH 437 0
DWIDTH 4 0
BBX 2 2 1 3
BITMAP
B0
F0
ENDCHAR
STARTCHAR ellipsis
ENCODING 8230
SWIDTH 810 0
DWIDTH 7 0
BBX 7 2 0 -1
BITMAP
A724
4110
ENDCHAR
STARTCHAR perthousand
ENCODING 8240
SWIDTH 1184 0
DWIDTH 11 0
BBX 10 8 0 0
BITMAP
292000
266000
698000
254000
026490
09DA70
189A30
20A290
ENDCHAR
STARTCHAR guilsinglleft
ENCODING 8249
SWIDTH 413 0
DWIDTH 4 0
BBX 2 4 1 1
BITMAP
20
90
80
60
ENDCHAR
STARTCHAR guilsinglright
ENCODING 8250
SWIDTH 416 0
DWIDTH 4 0
BBX 3 4 0 1
BITMAP
20
18
18
50
ENDCHAR
STARTCHAR fraction
ENCODING 8260
SWIDTH 580 0
DWIDTH 5 0
BBX 5 8 0 0
BITMAP
0080
0140
0200
0900
0800
2400
2000
9000
ENDCHAR
STARTCHAR Euro
ENCODING 8364
SWIDTH 622 0
DWIDTH 6 0
BBX 6 8 0 0
BITMAP
01A0
0620
0970
1C50
2E00
7900
2400
1A40
ENDCHAR
STARTCHAR trademark
ENCODING 8482
SWIDTH 1084 0
DWIDTH 10 0
BBX 8 4 1 3
BITMAP
6956
14AA
2265
2115
ENDCHAR
STARTCHAR Omega
ENCODING 8486
SWIDTH 839 0
DWIDTH 8 0
BBX 7 7 0 0
BITMAP
0690
2424
7018
601C
3018
1420
6CA8
ENDCHAR
STARTCHAR partialdiff
ENCODING 8706
SWIDTH 580 0
DWIDTH 5 0
BBX 5 8 0 0
BITMAP
0100
0980
0480
1AC0
71C0
9280
9700
6900
ENDCHAR
STARTCHAR Delta
ENCODING 8710
SWIDTH 663 0
DWIDTH 6 0
BBX 6 6 0 0
BITMAP
0100
0A00
1640
2080
5090
A5A0
ENDCHAR
STARTCHAR product
ENCODING 8719
SWIDTH 667 0
DWIDTH 6 0
BBX 6 8 0 -1
BITMAP
2590
6090
6090
6090
6090
6090
6090
5050
ENDCHAR
STARTCHAR summation
ENCODING 8721
SWIDTH 677 0
DWIDTH 6 0
BBX 6 8 0 -1
BITMAP
2A90
3400
1D00
0A00
0500
1800
6000
6A80
ENDCHAR
STARTCHAR minus
ENCODING 8722
SWIDTH 617 0
DWIDTH 6 0
BBX 5 1 0 3
BITMAP
6A80
ENDCHAR
STARTCHAR radical
ENCODING 8730
SWIDTH 709 0
DWIDTH 6 0
BBX 7 9 0 0
BITMAP
0004
000C
0018
0020
1050
7480
1940
0A00
0C00
ENDCHAR
STARTCHAR infinity
ENCODING 8734
SWIDTH 681 0
DWIDTH 6 0
BBX 6 3 0 2
BITMAP
2590
5B20
6A90
ENDCHAR
STARTCHAR integral
ENCODING 8747
SWIDTH 583 0
DWIDTH 5 0
BBX 8 11 -1 -2
BITMAP
0014
0069
0098
00C0
0180
0240
0300
0600
5900
9800
6000
ENDCHAR
STARTCHAR approxequal
ENCODING 8776
SWIDTH 671 0
DWIDTH 6 0
BBX 6 4 0 1
BITMAP
2E10
1280
2D50
4680
ENDCHAR
STARTCHAR notequal
ENCODING 8800
SWIDTH 617 0
DWIDTH 6 0
BBX 4 6 1 0
BITMAP
06
AE
24
BA
80
40
ENDCHAR
STARTCHAR lessequal
ENCODING 8804
SWIDTH 704 0
DWIDTH 6 0
BBX 5 6 0 0
BITMAP
0180
1900
7400
0A00
0180
6A80
ENDCHAR
STARTCHAR greaterequal
ENCODING 8805
SWIDTH 617 0
DWIDTH 6 0
BBX 5 6 0 0
BITMAP
6400
0A00
0280
1900
5000
6A80
ENDCHAR
STARTCHAR lozenge
ENCODING 9674
SWIDTH 580 0
DWIDTH 5 0
BBX 5 7 0 0
BITMAP
0800
1A00
2240
9080
6140
2600
0C00
ENDCHAR
STARTCHAR commaaccent
ENCODING 63171
SWIDTH 250 0
DWIDTH 2 0
BBX 2 2 0 -2
BITMAP
10
60
ENDCHAR
STARTCHAR ff
ENCODING 64256
SWIDTH 773 0
DWIDTH 7 0
BBX 9 10 0 -1
BITMAP
024600
099A40
096600
183000
6FF800
305000
209000
60C000
918000
824000
ENDCHAR
STARTCHAR fi
ENCODING 64257
SWIDTH 623 0
DWIDTH 6 0
BBX 6 10 0 -2
BITMAP
0190
0920
0850
2ED0
7480
3080
6240
9180
C000
4000
ENDCHAR
STARTCHAR fl
ENCODING 64258
SWIDTH 637 0
DWIDTH 6 0
BBX 6 10 0 -2
BITMAP
0290
0930
1820
2E50
3080
3080
6180
91C0
C000
4000
ENDCHAR
STARTCHAR .notdef
ENCODING -1
SWIDTH 896 0
DWIDTH 8 0
BBX 9 8 0 0
BITMAP
07FF80
0BFF80
0E9740
1E2F00
2E3E00
396D00
7BEC00
7FF800
ENDCHAR
ENDFONT
